<?xml version="1.0" standalone="no"?>
<svg viewBox="0 0 200 200" xmlns="http://www.w3.org/2000/svg">
  <path fill="#F4A460" d="M11.3,-25.1C17,-13.9,25.6,-14.8,33.3,-11.3C41,-7.8,47.9,0,48.5,8.1C49.2,16.2,43.6,24.6,38.9,38.3C34.2,52.1,30.4,71.2,19.6,80.8C8.9,90.3,-8.8,90.3,-17.4,78.8C-26,67.4,-25.5,44.5,-27.5,30.4C-29.5,16.3,-34.1,10.9,-33.8,5.6C-33.5,0.2,-28.3,-5.2,-26.7,-13.6C-25.1,-22.1,-27,-33.6,-23.2,-45.6C-19.4,-57.6,-9.7,-70.1,-3.4,-64.7C2.8,-59.4,5.6,-36.2,11.3,-25.1Z" transform="translate(100 100)" />
</svg>
