<svg class="border shadow-md" viewBox="0 0 1351.68 760.32" style="width: 1351.68px; height: 760.32px;" xmlns="http://www.w3.org/2000/svg" preserveAspectRatio="none"><rect class="bg" id="bg" x="0" y="0" width="1351.68" height="760.32" fill="#ffffff"/><g transform="rotate(192 675.84 380.16)"><path d="M -450.56 440.32 S -241.00 293.32&#10;            0.00 440.32 64.56 192.32&#10;            450.56 440.32 665.84 198.32&#10;            901.12 440.32 1116.40 180.32&#10;            1351.68 440.32 1566.96 334.32&#10;            1802.24 440.32 h 110 V 1360.3200000000002 H -450.56 Z" fill="#F4A460"/><path d="M -450.56 345.00 S -235.28 105.00&#10;            0.00 345.00 34.56 182.50&#10;            450.56 345.00 645.12 148.00&#10;            901.12 345.00 1116.40 23.00&#10;            1351.68 345.00 1566.96 120.00&#10;            1802.24 345.00 h 110 V -600 H -450.56 Z" fill="#000000"/></g></svg>