<?xml version="1.0" standalone="no"?><svg xmlns="http://www.w3.org/2000/svg" viewBox="0 0 1440 320"><path fill="#f4a460" fill-opacity="1" d="M0,32L24,69.3C48,107,96,181,144,224C192,267,240,277,288,266.7C336,256,384,224,432,224C480,224,528,256,576,256C624,256,672,224,720,176C768,128,816,64,864,64C912,64,960,128,1008,160C1056,192,1104,192,1152,165.3C1200,139,1248,85,1296,80C1344,75,1392,117,1416,138.7L1440,160L1440,320L1416,320C1392,320,1344,320,1296,320C1248,320,1200,320,1152,320C1104,320,1056,320,1008,320C960,320,912,320,864,320C816,320,768,320,720,320C672,320,624,320,576,320C528,320,480,320,432,320C384,320,336,320,288,320C240,320,192,320,144,320C96,320,48,320,24,320L0,320Z"></path></svg>